<svg version="1.1" xmlns="http://www.w3.org/2000/svg" xmlns:xlink="http://www.w3.org/1999/xlink" width="34" height="33"><defs/><g><path fill="rgb(149,225,211)" stroke="none" paint-order="stroke fill markers" fill-rule="evenodd" d=" M 31.73963165283203 10.502830505371094 C 30.156341552734375 6.806746482849121 27.19312286376953 3.843203544616699 23.49736785888672 2.260104179382324 C 24.496780395507812 1.473322868347168 25.754714965820312 1.0000619888305664 27.12560272216797 1.0000619888305664 C 30.369888305664062 1.0000619888305664 32.999969482421875 3.629818916320801 32.999969482421875 6.8740997314453125 C 32.999969482421875 8.245006561279297 32.526641845703125 9.502664566040039 31.73963165283203 10.502830505371094 Z M 31.49999237060547 16.999736785888672 C 31.49999237060547 20.851984977722168 29.987770080566406 24.343029022216797 27.5374755859375 26.940003395080566 C 27.5374755859375 26.940003395080566 29.565597534179688 28.967753410339355 29.565597534179688 28.967753410339355 C 29.833961486816406 29.236570358276367 30.000015258789062 29.607311248779297 30.000015258789062 30.01679515838623 C 30.000015258789062 30.835762977600098 29.335914611816406 31.49975872039795 28.516860961914062 31.49975872039795 C 28.107276916503906 31.49975872039795 27.736488342285156 31.334057807922363 27.468124389648438 31.06524085998535 C 27.468124389648438 31.06524085998535 25.289627075195312 28.886691093444824 25.289627075195312 28.886691093444824 C 22.939125061035156 30.52939510345459 20.084854125976562 31.49975872039795 16.999984741210938 31.49975872039795 C 13.921180725097656 31.49975872039795 11.071830749511719 30.533567428588867 8.723960876464844 28.89682388305664 C 8.723960876464844 28.89682388305664 6.5606842041015625 31.06047248840332 6.5606842041015625 31.06047248840332 C 6.289115905761719 31.331673622131348 5.914207458496094 31.49975872039795 5.499931335449219 31.49975872039795 C 4.671607971191406 31.49975872039795 3.9999542236328125 30.828014373779297 3.9999542236328125 29.999509811401367 C 3.9999542236328125 29.585853576660156 4.167839050292969 29.210344314575195 4.439292907714844 28.939143180847168 C 4.439292907714844 28.939143180847168 6.451164245605469 26.927486419677734 6.451164245605469 26.927486419677734 C 4.0077362060546875 24.331704139709473 2.4999771118164062 20.845428466796875 2.4999771118164062 16.999736785888672 C 2.4999771118164062 8.991852760314941 8.991867065429688 2.4997148513793945 16.999984741210938 2.4997148513793945 C 25.008102416992188 2.4997148513793945 31.49999237060547 8.991852760314941 31.49999237060547 16.999736785888672 Z M 16.999984741210938 5.499616622924805 C 10.648628234863281 5.499616622924805 5.499931335449219 10.648265838623047 5.499931335449219 16.999736785888672 C 5.499931335449219 23.351207733154297 10.648628234863281 28.49985694885254 16.999984741210938 28.49985694885254 C 23.351226806640625 28.49985694885254 28.499923706054688 23.351207733154297 28.499923706054688 16.999736785888672 C 28.499923706054688 10.648265838623047 23.351226806640625 5.499616622924805 16.999984741210938 5.499616622924805 Z M 23.00000762939453 18.499985694885254 C 23.00000762939453 18.499985694885254 16.999984741210938 18.499985694885254 16.999984741210938 18.499985694885254 C 16.171546936035156 18.499985694885254 15.500007629394531 17.8282413482666 15.500007629394531 16.999736785888672 C 15.500007629394531 16.999736785888672 15.500007629394531 8.999601364135742 15.500007629394531 8.999601364135742 C 15.500007629394531 8.171692848205566 16.171546936035156 7.499948501586914 16.999984741210938 7.499948501586914 C 17.82842254638672 7.499948501586914 18.499961853027344 8.171692848205566 18.499961853027344 8.999601364135742 C 18.499961853027344 8.999601364135742 18.499961853027344 15.49948787689209 18.499961853027344 15.49948787689209 C 18.499961853027344 15.49948787689209 23.00000762939453 15.49948787689209 23.00000762939453 15.49948787689209 C 23.828445434570312 15.49948787689209 24.499984741210938 16.171232223510742 24.499984741210938 16.999736785888672 C 24.499984741210938 17.8282413482666 23.828445434570312 18.499985694885254 23.00000762939453 18.499985694885254 Z M 2.2872314453125 10.705486297607422 C 1.4833984375 9.685054779052734 1 8.399978637695312 1 6.999865531921387 C 1 3.685847282409668 3.6862716674804688 1.0000619888305664 6.999908447265625 1.0000619888305664 C 8.400093078613281 1.0000619888305664 9.685035705566406 1.4834556579589844 10.705848693847656 2.28692626953125 C 6.930900573730469 3.9040002822875977 3.9042816162109375 6.930724143981934 2.2872314453125 10.705486297607422 Z"/></g></svg>