<svg version="1.1" xmlns="http://www.w3.org/2000/svg" xmlns:xlink="http://www.w3.org/1999/xlink" width="24" height="15"><defs/><g><path fill="rgb(204,204,204)" stroke="none" paint-order="stroke fill markers" fill-rule="evenodd" d=" M 4.137580871582031 2.520115852355957 C 4.137580871582031 2.520115852355957 11.996696472167969 10.380180358886719 11.996696472167969 10.380180358886719 C 11.996696472167969 10.380180358886719 19.958465576171875 2.418191909790039 19.958465576171875 2.418191909790039 C 19.958465576171875 2.418191909790039 19.95892333984375 2.419384002685547 19.95892333984375 2.419384002685547 C 20.228775024414062 2.158315658569336 20.595558166503906 1.998575210571289 20.99999237060547 1.998575210571289 C 21.82843017578125 1.998575210571289 22.499969482421875 2.6691274642944336 22.499969482421875 3.498228073120117 C 22.499969482421875 3.9023475646972656 22.339637756347656 4.268916130065918 22.07939910888672 4.5389251708984375 C 22.07939910888672 4.5389251708984375 22.079856872558594 4.540117263793945 22.079856872558594 4.540117263793945 C 22.079856872558594 4.540117263793945 13.079879760742188 13.538630485534668 13.079879760742188 13.538630485534668 C 13.079879760742188 13.538630485534668 13.079421997070312 13.538630485534668 13.079421997070312 13.538630485534668 C 12.806594848632812 13.821752548217773 12.423904418945312 13.99818229675293 12.000015258789062 13.99818229675293 C 11.998870849609375 13.99818229675293 11.997726440429688 13.99818229675293 11.996696472167969 13.99818229675293 C 11.995552062988281 13.99818229675293 11.994407653808594 13.99818229675293 11.993263244628906 13.99818229675293 C 11.569374084472656 13.99818229675293 11.186798095703125 13.821752548217773 10.913970947265625 13.538630485534668 C 10.913970947265625 13.538630485534668 10.91351318359375 13.538630485534668 10.91351318359375 13.538630485534668 C 10.91351318359375 13.538630485534668 1.913421630859375 4.540117263793945 1.913421630859375 4.540117263793945 C 1.913421630859375 4.540117263793945 1.9173126220703125 4.535348892211914 1.9173126220703125 4.535348892211914 C 1.6590194702148438 4.2653398513793945 1.4999465942382812 3.901155471801758 1.4999465942382812 3.498228073120117 C 1.4999465942382812 2.6691274642944336 2.171600341796875 1.998575210571289 2.9999237060546875 1.998575210571289 C 3.4550552368164062 1.998575210571289 3.8624649047851562 2.2006349563598633 4.137580871582031 2.520115852355957 Z"/></g></svg>