<svg version="1.1" xmlns="http://www.w3.org/2000/svg" xmlns:xlink="http://www.w3.org/1999/xlink" width="35" height="35"><defs/><g><path fill="rgb(149,225,211)" stroke="none" paint-order="stroke fill markers" fill-rule="evenodd" d=" M 33.06451416015625 26.889369010925293 C 33.06451416015625 26.889369010925293 18.59368896484375 32.877251625061035 18.59368896484375 32.877251625061035 C 18.41161346435547 32.95592975616455 18.21088409423828 33.00003719329834 17.999969482421875 33.00003719329834 C 17.78905487060547 33.00003719329834 17.58832550048828 32.95592975616455 17.40625 32.877251625061035 C 17.40625 32.877251625061035 2.9353103637695312 26.889369010925293 2.9353103637695312 26.889369010925293 C 2.3867950439453125 26.666447639465332 1.9999847412109375 26.128217697143555 1.9999847412109375 25.499984741210938 C 1.9999847412109375 25.499984741210938 1.9999847412109375 2.499744415283203 1.9999847412109375 2.499744415283203 C 1.9999847412109375 1.6712398529052734 2.6715240478515625 1.000091552734375 3.4999618530273438 1.000091552734375 C 3.7032089233398438 1.000091552734375 3.896728515625 1.0406227111816406 4.07342529296875 1.113936424255371 C 4.07342529296875 1.113936424255371 4.073539733886719 1.113936424255371 4.073539733886719 1.113936424255371 C 4.073539733886719 1.113936424255371 4.0759429931640625 1.115128517150879 4.0759429931640625 1.115128517150879 C 4.080406188964844 1.1163206100463867 4.084869384765625 1.1187047958374023 4.089332580566406 1.120492935180664 C 4.089332580566406 1.120492935180664 17.999969482421875 6.876513481140137 17.999969482421875 6.876513481140137 C 17.999969482421875 6.876513481140137 31.910606384277344 1.120492935180664 31.910606384277344 1.120492935180664 C 31.914955139160156 1.1187047958374023 31.919532775878906 1.1163206100463867 31.923995971679688 1.115128517150879 C 31.923995971679688 1.115128517150879 31.926513671875 1.113936424255371 31.926513671875 1.113936424255371 C 31.926513671875 1.113936424255371 31.926513671875 1.113936424255371 31.926513671875 1.113936424255371 C 32.10321044921875 1.0406227111816406 32.296730041503906 1.000091552734375 32.499977111816406 1.000091552734375 C 33.32841491699219 1.000091552734375 33.99995422363281 1.6712398529052734 33.99995422363281 2.499744415283203 C 33.99995422363281 2.499744415283203 33.99995422363281 25.499984741210938 33.99995422363281 25.499984741210938 C 33.99995422363281 26.128217697143555 33.61314392089844 26.666447639465332 33.06451416015625 26.889369010925293 Z M 16.49999237060547 9.502694129943848 C 16.49999237060547 9.502694129943848 4.99993896484375 4.74385929107666 4.99993896484375 4.74385929107666 C 4.99993896484375 4.74385929107666 4.99993896484375 24.496838569641113 4.99993896484375 24.496838569641113 C 4.99993896484375 24.496838569641113 16.49999237060547 29.2556734085083 16.49999237060547 29.2556734085083 C 16.49999237060547 29.2556734085083 16.49999237060547 9.502694129943848 16.49999237060547 9.502694129943848 Z M 31 4.74385929107666 C 31 4.74385929107666 19.49994659423828 9.502694129943848 19.49994659423828 9.502694129943848 C 19.49994659423828 9.502694129943848 19.49994659423828 29.2556734085083 19.49994659423828 29.2556734085083 C 19.49994659423828 29.2556734085083 31 24.496838569641113 31 24.496838569641113 C 31 24.496838569641113 31 4.74385929107666 31 4.74385929107666 Z M 21.879287719726562 11.634156227111816 C 21.879287719726562 11.634156227111816 27.379318237304688 9.134337425231934 27.379318237304688 9.134337425231934 C 27.379318237304688 9.134337425231934 27.379318237304688 9.134337425231934 27.379318237304688 9.134337425231934 C 27.56848907470703 9.047910690307617 27.778488159179688 8.99963092803955 27.99993133544922 8.99963092803955 C 28.828369140625 8.99963092803955 29.500022888183594 9.671375274658203 29.500022888183594 10.499879837036133 C 29.500022888183594 11.10665512084961 29.139305114746094 11.629387855529785 28.62065887451172 11.865422248840332 C 28.62065887451172 11.865422248840332 28.62065887451172 11.865422248840332 28.62065887451172 11.865422248840332 C 28.62065887451172 11.865422248840332 23.120628356933594 14.365241050720215 23.120628356933594 14.365241050720215 C 23.120628356933594 14.365241050720215 23.120628356933594 14.365241050720215 23.120628356933594 14.365241050720215 C 22.93145751953125 14.451667785644531 22.721458435058594 14.499947547912598 22.500015258789062 14.499947547912598 C 21.67157745361328 14.499947547912598 20.999923706054688 13.828203201293945 20.999923706054688 12.999698638916016 C 20.999923706054688 12.392923355102539 21.360641479492188 11.870190620422363 21.879287719726562 11.634156227111816 Z M 21.879287719726562 17.134472846984863 C 21.879287719726562 17.134472846984863 21.879287719726562 17.134472846984863 21.879287719726562 17.134472846984863 C 21.879287719726562 17.134472846984863 27.379318237304688 14.634057998657227 27.379318237304688 14.634057998657227 C 27.379318237304688 14.634057998657227 27.379318237304688 14.634057998657227 27.379318237304688 14.634057998657227 C 27.56848907470703 14.548227310180664 27.778488159179688 14.499947547912598 27.99993133544922 14.499947547912598 C 28.828369140625 14.499947547912598 29.500022888183594 15.171095848083496 29.500022888183594 15.999600410461426 C 29.500022888183594 16.606971740722656 29.139305114746094 17.129108428955078 28.62065887451172 17.365142822265625 C 28.62065887451172 17.365142822265625 23.120628356933594 19.86555767059326 23.120628356933594 19.86555767059326 C 23.120628356933594 19.86555767059326 23.120628356933594 19.864961624145508 23.120628356933594 19.864961624145508 C 22.93145751953125 19.951388359069824 22.721458435058594 19.99966812133789 22.500015258789062 19.99966812133789 C 21.67157745361328 19.99966812133789 20.999923706054688 19.32792377471924 20.999923706054688 18.500015258789062 C 20.999923706054688 17.892643928527832 21.360641479492188 17.37050724029541 21.879287719726562 17.134472846984863 Z M 21.879287719726562 22.634193420410156 C 21.879287719726562 22.634193420410156 21.879287719726562 22.634193420410156 21.879287719726562 22.634193420410156 C 21.879287719726562 22.634193420410156 27.379318237304688 20.134374618530273 27.379318237304688 20.134374618530273 C 27.379318237304688 20.134374618530273 27.379318237304688 20.134374618530273 27.379318237304688 20.134374618530273 C 27.56848907470703 20.047947883605957 27.778488159179688 19.99966812133789 27.99993133544922 19.99966812133789 C 28.828369140625 19.99966812133789 29.500022888183594 20.671412467956543 29.500022888183594 21.499917030334473 C 29.500022888183594 22.10669231414795 29.139305114746094 22.629425048828125 28.62065887451172 22.865459442138672 C 28.62065887451172 22.865459442138672 28.62065887451172 22.865459442138672 28.62065887451172 22.865459442138672 C 28.62065887451172 22.865459442138672 23.120628356933594 25.365278244018555 23.120628356933594 25.365278244018555 C 23.120628356933594 25.365278244018555 23.120628356933594 25.365278244018555 23.120628356933594 25.365278244018555 C 22.93145751953125 25.45170497894287 22.721458435058594 25.499984741210938 22.500015258789062 25.499984741210938 C 21.67157745361328 25.499984741210938 20.999923706054688 24.828240394592285 20.999923706054688 23.999735832214355 C 20.999923706054688 23.39296054840088 21.360641479492188 22.870227813720703 21.879287719726562 22.634193420410156 Z M 8.000007629394531 8.99963092803955 C 8.221450805664062 8.99963092803955 8.431449890136719 9.047910690307617 8.620620727539062 9.134337425231934 C 8.620620727539062 9.134337425231934 8.620620727539062 9.134337425231934 8.620620727539062 9.134337425231934 C 8.620620727539062 9.134337425231934 14.120651245117188 11.634156227111816 14.120651245117188 11.634156227111816 C 14.120651245117188 11.634156227111816 14.120651245117188 11.634156227111816 14.120651245117188 11.634156227111816 C 14.639297485351562 11.870190620422363 15.000015258789062 12.392923355102539 15.000015258789062 12.999698638916016 C 15.000015258789062 13.828203201293945 14.328361511230469 14.499947547912598 13.499923706054688 14.499947547912598 C 13.278480529785156 14.499947547912598 13.0684814453125 14.451667785644531 12.879310607910156 14.365241050720215 C 12.879310607910156 14.365241050720215 12.879310607910156 14.365241050720215 12.879310607910156 14.365241050720215 C 12.879310607910156 14.365241050720215 7.379280090332031 11.865422248840332 7.379280090332031 11.865422248840332 C 7.379280090332031 11.865422248840332 7.379280090332031 11.865422248840332 7.379280090332031 11.865422248840332 C 6.860633850097656 11.629387855529785 6.499916076660156 11.10665512084961 6.499916076660156 10.499879837036133 C 6.499916076660156 9.671375274658203 7.17156982421875 8.99963092803955 8.000007629394531 8.99963092803955 Z M 8.000007629394531 14.499947547912598 C 8.221450805664062 14.499947547912598 8.431449890136719 14.548227310180664 8.620620727539062 14.634057998657227 C 8.620620727539062 14.634057998657227 8.620620727539062 14.634057998657227 8.620620727539062 14.634057998657227 C 8.620620727539062 14.634057998657227 14.120651245117188 17.134472846984863 14.120651245117188 17.134472846984863 C 14.120651245117188 17.134472846984863 14.120651245117188 17.134472846984863 14.120651245117188 17.134472846984863 C 14.639297485351562 17.37050724029541 15.000015258789062 17.892643928527832 15.000015258789062 18.500015258789062 C 15.000015258789062 19.32792377471924 14.328361511230469 19.99966812133789 13.499923706054688 19.99966812133789 C 13.278480529785156 19.99966812133789 13.0684814453125 19.951388359069824 12.879310607910156 19.864961624145508 C 12.879310607910156 19.864961624145508 12.879310607910156 19.86555767059326 12.879310607910156 19.86555767059326 C 12.879310607910156 19.86555767059326 7.379280090332031 17.365142822265625 7.379280090332031 17.365142822265625 C 7.379280090332031 17.365142822265625 7.379280090332031 17.365142822265625 7.379280090332031 17.365142822265625 C 6.860633850097656 17.129108428955078 6.499916076660156 16.606971740722656 6.499916076660156 15.999600410461426 C 6.499916076660156 15.171095848083496 7.17156982421875 14.499947547912598 8.000007629394531 14.499947547912598 Z M 8.000007629394531 19.99966812133789 C 8.221450805664062 19.99966812133789 8.431449890136719 20.047947883605957 8.620620727539062 20.134374618530273 C 8.620620727539062 20.134374618530273 8.620620727539062 20.134374618530273 8.620620727539062 20.134374618530273 C 8.620620727539062 20.134374618530273 14.120651245117188 22.634193420410156 14.120651245117188 22.634193420410156 C 14.120651245117188 22.634193420410156 14.120651245117188 22.634193420410156 14.120651245117188 22.634193420410156 C 14.639297485351562 22.870227813720703 15.000015258789062 23.39296054840088 15.000015258789062 23.999735832214355 C 15.000015258789062 24.828240394592285 14.328361511230469 25.499984741210938 13.499923706054688 25.499984741210938 C 13.278480529785156 25.499984741210938 13.0684814453125 25.45170497894287 12.879310607910156 25.365278244018555 C 12.879310607910156 25.365278244018555 12.879310607910156 25.365278244018555 12.879310607910156 25.365278244018555 C 12.879310607910156 25.365278244018555 7.379280090332031 22.865459442138672 7.379280090332031 22.865459442138672 C 7.379280090332031 22.865459442138672 7.379280090332031 22.865459442138672 7.379280090332031 22.865459442138672 C 6.860633850097656 22.629425048828125 6.499916076660156 22.10669231414795 6.499916076660156 21.499917030334473 C 6.499916076660156 20.671412467956543 7.17156982421875 19.99966812133789 8.000007629394531 19.99966812133789 Z"/></g></svg>