<svg version="1.1" xmlns="http://www.w3.org/2000/svg" xmlns:xlink="http://www.w3.org/1999/xlink" width="34" height="30"><defs/><g><path fill="rgb(149,225,211)" stroke="none" paint-order="stroke fill markers" fill-rule="evenodd" d=" M 31.000038146972656 23.999706268310547 C 31.000038146972656 23.999706268310547 23.500038146972656 23.999706268310547 23.500038146972656 23.999706268310547 C 23.500038146972656 23.999706268310547 21.499954223632812 23.999706268310547 21.499954223632812 23.999706268310547 C 21.499954223632812 23.999706268310547 21.499954223632812 26.49952507019043 21.499954223632812 26.49952507019043 C 21.499954223632812 26.49952507019043 23.500038146972656 28.49985694885254 23.500038146972656 28.49985694885254 C 23.500038146972656 28.49985694885254 23.500038146972656 28.999939918518066 23.500038146972656 28.999939918518066 C 23.500038146972656 28.999939918518066 10.500007629394531 28.999939918518066 10.500007629394531 28.999939918518066 C 10.500007629394531 28.999939918518066 10.500007629394531 28.49985694885254 10.500007629394531 28.49985694885254 C 10.500007629394531 28.49985694885254 12.499977111816406 26.49952507019043 12.499977111816406 26.49952507019043 C 12.499977111816406 26.49952507019043 12.499977111816406 23.999706268310547 12.499977111816406 23.999706268310547 C 12.499977111816406 23.999706268310547 10.500007629394531 23.999706268310547 10.500007629394531 23.999706268310547 C 10.500007629394531 23.999706268310547 3.0000076293945312 23.999706268310547 3.0000076293945312 23.999706268310547 C 2.17156982421875 23.999706268310547 1.500030517578125 23.327961921691895 1.500030517578125 22.499457359313965 C 1.500030517578125 22.499457359313965 1.500030517578125 2.4997148513793945 1.500030517578125 2.4997148513793945 C 1.500030517578125 1.6712102890014648 2.17156982421875 1.0000619888305664 3.0000076293945312 1.0000619888305664 C 3.0000076293945312 1.0000619888305664 31.000038146972656 1.0000619888305664 31.000038146972656 1.0000619888305664 C 31.828475952148438 1.0000619888305664 32.50001525878906 1.6712102890014648 32.50001525878906 2.4997148513793945 C 32.50001525878906 2.4997148513793945 32.50001525878906 22.499457359313965 32.50001525878906 22.499457359313965 C 32.50001525878906 23.327961921691895 31.828475952148438 23.999706268310547 31.000038146972656 23.999706268310547 Z M 30.500045776367188 2.999797821044922 C 30.500045776367188 2.999797821044922 3.5 2.999797821044922 3.5 2.999797821044922 C 3.5 2.999797821044922 3.5 19.999638557434082 3.5 19.999638557434082 C 3.5 19.999638557434082 30.500045776367188 19.999638557434082 30.500045776367188 19.999638557434082 C 30.500045776367188 19.999638557434082 30.500045776367188 2.999797821044922 30.500045776367188 2.999797821044922 Z M 13.999954223632812 9.999767303466797 C 14.414230346679688 9.999767303466797 14.789138793945312 10.167852401733398 15.060592651367188 10.439053535461426 C 15.060592651367188 10.439053535461426 15.060592651367188 10.439053535461426 15.060592651367188 10.439053535461426 C 15.060592651367188 10.439053535461426 15.999923706054688 11.378422737121582 15.999923706054688 11.378422737121582 C 15.999923706054688 11.378422737121582 18.93933868408203 8.43931770324707 18.93933868408203 8.43931770324707 C 18.93933868408203 8.43931770324707 18.93933868408203 8.43931770324707 18.93933868408203 8.43931770324707 C 19.210792541503906 8.167520523071289 19.58570098876953 8.000031471252441 19.999977111816406 8.000031471252441 C 20.828414916992188 8.000031471252441 21.499954223632812 8.67117977142334 21.499954223632812 9.49968433380127 C 21.499954223632812 9.913936614990234 21.332069396972656 10.288849830627441 21.06061553955078 10.560647010803223 C 21.06061553955078 10.560647010803223 21.06061553955078 10.560647010803223 21.06061553955078 10.560647010803223 C 21.06061553955078 10.560647010803223 17.06067657470703 14.560714721679688 17.06067657470703 14.560714721679688 C 17.06067657470703 14.560714721679688 17.06067657470703 14.560714721679688 17.06067657470703 14.560714721679688 C 16.789222717285156 14.831915855407715 16.414199829101562 15.000000953674316 15.999923706054688 15.000000953674316 C 15.585762023925781 15.000000953674316 15.210739135742188 14.831915855407715 14.939285278320312 14.560714721679688 C 14.939285278320312 14.560714721679688 14.939285278320312 14.560714721679688 14.939285278320312 14.560714721679688 C 14.939285278320312 14.560714721679688 12.939315795898438 12.560382843017578 12.939315795898438 12.560382843017578 C 12.939315795898438 12.560382843017578 12.939315795898438 12.560382843017578 12.939315795898438 12.560382843017578 C 12.667861938476562 12.28918170928955 12.499977111816406 11.91367244720459 12.499977111816406 11.500016212463379 C 12.499977111816406 10.67151165008545 13.171630859375 9.999767303466797 13.999954223632812 9.999767303466797 Z"/></g></svg>