<svg version="1.1" xmlns="http://www.w3.org/2000/svg" xmlns:xlink="http://www.w3.org/1999/xlink" width="35" height="33"><defs/><g><path fill="rgb(149,225,211)" stroke="none" paint-order="stroke fill markers" fill-rule="evenodd" d=" M 33.99993133544922 17.499849319458008 C 33.99993133544922 18.328353881835938 33.328392028808594 18.999502182006836 32.49995422363281 18.999502182006836 C 32.10478973388672 18.999502182006836 31.748077392578125 18.843934059143066 31.48017120361328 18.59419059753418 C 31.48017120361328 18.59419059753418 31.47650909423828 18.597766876220703 31.47650909423828 18.597766876220703 C 31.47650909423828 18.597766876220703 18.038169860839844 5.159303665161133 18.038169860839844 5.159303665161133 C 18.038169860839844 5.159303665161133 18.038284301757812 5.158707618713379 18.038284301757812 5.158707618713379 C 18.038284301757812 5.158707618713379 17.99994659423828 5.122348785400391 17.99994659423828 5.122348785400391 C 17.99994659423828 5.122348785400391 17.99994659423828 5.121752738952637 17.99994659423828 5.121752738952637 C 17.99994659423828 5.121752738952637 4.553825378417969 18.56856060028076 4.553825378417969 18.56856060028076 C 4.553825378417969 18.56856060028076 4.553138732910156 18.567964553833008 4.553138732910156 18.567964553833008 C 4.282257080078125 18.834993362426758 3.9104385375976562 18.999502182006836 3.5000534057617188 18.999502182006836 C 2.6715011596679688 18.999502182006836 1.9999618530273438 18.328353881835938 1.9999618530273438 17.499849319458008 C 1.9999618530273438 17.074868202209473 2.177001953125 16.69161033630371 2.4608154296875 16.418621063232422 C 2.4608154296875 16.418621063232422 16.9188232421875 1.960322380065918 16.9188232421875 1.960322380065918 C 17.19176483154297 1.6766042709350586 17.575027465820312 1.4995784759521484 17.99994659423828 1.4995784759521484 C 17.99994659423828 1.4995784759521484 17.99994659423828 1.4995784759521484 17.99994659423828 1.4995784759521484 C 17.99994659423828 1.4995784759521484 17.99994659423828 1.4995784759521484 17.99994659423828 1.4995784759521484 C 18.00017547607422 1.4995784759521484 18.000289916992188 1.4995784759521484 18.000518798828125 1.4995784759521484 C 18.027069091796875 1.4995784759521484 18.053390502929688 1.5001745223999023 18.07959747314453 1.501962661743164 C 18.083717346191406 1.501962661743164 18.08795166015625 1.502558708190918 18.092071533203125 1.502558708190918 C 18.114730834960938 1.5043468475341797 18.137161254882812 1.5061349868774414 18.159591674804688 1.508519172668457 C 18.160964965820312 1.508519172668457 18.162452697753906 1.508519172668457 18.1639404296875 1.509115219116211 C 18.53106689453125 1.5490503311157227 18.858139038085938 1.7213077545166016 19.09697723388672 1.9770116806030273 C 19.09697723388672 1.9770116806030273 19.0977783203125 1.9764156341552734 19.0977783203125 1.9764156341552734 C 19.0977783203125 1.9764156341552734 24.999954223632812 7.878467559814453 24.999954223632812 7.878467559814453 C 24.999954223632812 7.878467559814453 24.999954223632812 6.499812126159668 24.999954223632812 6.499812126159668 C 24.999954223632812 5.671307563781738 25.671493530273438 4.999563217163086 26.49993133544922 4.999563217163086 C 27.328369140625 4.999563217163086 27.999908447265625 5.671307563781738 27.999908447265625 6.499812126159668 C 27.999908447265625 6.499812126159668 27.999908447265625 10.878369331359863 27.999908447265625 10.878369331359863 C 27.999908447265625 10.878369331359863 33.59778594970703 16.47643756866455 33.59778594970703 16.47643756866455 C 33.59778594970703 16.47643756866455 33.59435272216797 16.480013847351074 33.59435272216797 16.480013847351074 C 33.84406280517578 16.747638702392578 33.99993133544922 17.104670524597168 33.99993133544922 17.499849319458008 Z M 30.999977111816406 19.99966812133789 C 30.999977111816406 19.99966812133789 30.999977111816406 24.499818801879883 30.999977111816406 24.499818801879883 C 30.999977111816406 24.499818801879883 30.999977111816406 26.49955463409424 30.999977111816406 26.49955463409424 C 30.999977111816406 26.49955463409424 30.999977111816406 30.499622344970703 30.999977111816406 30.499622344970703 C 30.999977111816406 31.328126907348633 30.32843780517578 31.999871253967285 29.5 31.999871253967285 C 29.5 31.999871253967285 26.49993133544922 31.999871253967285 26.49993133544922 31.999871253967285 C 26.49993133544922 31.999871253967285 26.49993133544922 19.99966812133789 26.49993133544922 19.99966812133789 C 26.49993133544922 19.99966812133789 20.500022888183594 19.99966812133789 20.500022888183594 19.99966812133789 C 20.500022888183594 19.99966812133789 20.500022888183594 31.999871253967285 20.500022888183594 31.999871253967285 C 20.500022888183594 31.999871253967285 6.500007629394531 31.999871253967285 6.500007629394531 31.999871253967285 C 5.67156982421875 31.999871253967285 5.000030517578125 31.328126907348633 5.000030517578125 30.499622344970703 C 5.000030517578125 30.499622344970703 5.000030517578125 26.49955463409424 5.000030517578125 26.49955463409424 C 5.000030517578125 26.49955463409424 5.000030517578125 24.499818801879883 5.000030517578125 24.499818801879883 C 5.000030517578125 24.499818801879883 5.000030517578125 19.99966812133789 5.000030517578125 19.99966812133789 C 5.000030517578125 19.99966812133789 17.99994659423828 6.999895095825195 17.99994659423828 6.999895095825195 C 17.99994659423828 6.999895095825195 30.999977111816406 19.99966812133789 30.999977111816406 19.99966812133789 Z M 15.499984741210938 19.99966812133789 C 15.499984741210938 19.99966812133789 9.499961853027344 19.99966812133789 9.499961853027344 19.99966812133789 C 9.499961853027344 19.99966812133789 9.499961853027344 26.000067710876465 9.499961853027344 26.000067710876465 C 9.499961853027344 26.000067710876465 15.499984741210938 26.000067710876465 15.499984741210938 26.000067710876465 C 15.499984741210938 26.000067710876465 15.499984741210938 19.99966812133789 15.499984741210938 19.99966812133789 Z"/></g></svg>