<svg version="1.1" xmlns="http://www.w3.org/2000/svg" xmlns:xlink="http://www.w3.org/1999/xlink" width="36" height="35"><defs/><g><path fill="rgb(149,225,211)" stroke="none" paint-order="stroke fill markers" fill-rule="evenodd" d=" M 32.500030517578125 33.00003719329834 C 32.500030517578125 33.00003719329834 3.5000152587890625 33.00003719329834 3.5000152587890625 33.00003719329834 C 2.6714630126953125 33.00003719329834 1.9999237060546875 32.32829284667969 1.9999237060546875 31.499788284301758 C 1.9999237060546875 31.499788284301758 1.9999237060546875 2.499744415283203 1.9999237060546875 2.499744415283203 C 1.9999237060546875 1.6712398529052734 2.6714630126953125 1.000091552734375 3.5000152587890625 1.000091552734375 C 3.5000152587890625 1.000091552734375 32.500030517578125 1.000091552734375 32.500030517578125 1.000091552734375 C 33.328468322753906 1.000091552734375 34.00000762939453 1.6712398529052734 34.00000762939453 2.499744415283203 C 34.00000762939453 2.499744415283203 34.00000762939453 31.499788284301758 34.00000762939453 31.499788284301758 C 34.00000762939453 32.32829284667969 33.328468322753906 33.00003719329834 32.500030517578125 33.00003719329834 Z M 31.00005340576172 3.999993324279785 C 31.00005340576172 3.999993324279785 4.999992370605469 3.999993324279785 4.999992370605469 3.999993324279785 C 4.999992370605469 3.999993324279785 4.999992370605469 29.999539375305176 4.999992370605469 29.999539375305176 C 4.999992370605469 29.999539375305176 31.00005340576172 29.999539375305176 31.00005340576172 29.999539375305176 C 31.00005340576172 29.999539375305176 31.00005340576172 3.999993324279785 31.00005340576172 3.999993324279785 Z M 8.500053405761719 5.499646186828613 C 8.500053405761719 5.499646186828613 13.999855041503906 5.499646186828613 13.999855041503906 5.499646186828613 C 13.999855041503906 5.499646186828613 13.999969482421875 5.499646186828613 13.999969482421875 5.499646186828613 C 14.828407287597656 5.499646186828613 15.499946594238281 6.171390533447266 15.499946594238281 6.999895095825195 C 15.499946594238281 7.828399658203125 14.828407287597656 8.499547958374023 13.999969482421875 8.499547958374023 C 13.999969482421875 8.499547958374023 13.999969482421875 8.499547958374023 13.999969482421875 8.499547958374023 C 13.999969482421875 8.499547958374023 9.500038146972656 8.499547958374023 9.500038146972656 8.499547958374023 C 9.500038146972656 8.499547958374023 9.500038146972656 12.999698638916016 9.500038146972656 12.999698638916016 C 9.500038146972656 12.999698638916016 9.500038146972656 12.999698638916016 9.500038146972656 12.999698638916016 C 9.500038146972656 13.828203201293945 8.828384399414062 14.499947547912598 7.999946594238281 14.499947547912598 C 7.171623229980469 14.499947547912598 6.499969482421875 13.828203201293945 6.499969482421875 12.999698638916016 C 6.499969482421875 12.999698638916016 6.499969482421875 12.999698638916016 6.499969482421875 12.999698638916016 C 6.499969482421875 12.999698638916016 6.499969482421875 7.499978065490723 6.499969482421875 7.499978065490723 C 6.499969482421875 7.499978065490723 6.499969482421875 7.499978065490723 6.499969482421875 7.499978065490723 C 6.499969482421875 7.499978065490723 6.499969482421875 5.499646186828613 6.499969482421875 5.499646186828613 C 6.499969482421875 5.499646186828613 8.500053405761719 5.499646186828613 8.500053405761719 5.499646186828613 C 8.500053405761719 5.499646186828613 8.500053405761719 5.499646186828613 8.500053405761719 5.499646186828613 Z M 6.499969482421875 20.999834060668945 C 6.499969482421875 20.999834060668945 6.499969482421875 20.999834060668945 6.499969482421875 20.999834060668945 C 6.499969482421875 20.171329498291016 7.171623229980469 19.499585151672363 7.999946594238281 19.499585151672363 C 8.828384399414062 19.499585151672363 9.500038146972656 20.171329498291016 9.500038146972656 20.999834060668945 C 9.500038146972656 20.999834060668945 9.500038146972656 20.999834060668945 9.500038146972656 20.999834060668945 C 9.500038146972656 20.999834060668945 9.500038146972656 25.499388694763184 9.500038146972656 25.499388694763184 C 9.500038146972656 25.499388694763184 13.999969482421875 25.499388694763184 13.999969482421875 25.499388694763184 C 13.999969482421875 25.499388694763184 13.999969482421875 25.499984741210938 13.999969482421875 25.499984741210938 C 14.828407287597656 25.499984741210938 15.499946594238281 26.171133041381836 15.499946594238281 26.999637603759766 C 15.499946594238281 27.828142166137695 14.828407287597656 28.499886512756348 13.999969482421875 28.499886512756348 C 13.999969482421875 28.499886512756348 13.999855041503906 28.499886512756348 13.999855041503906 28.499886512756348 C 13.999855041503906 28.499886512756348 8.500053405761719 28.499886512756348 8.500053405761719 28.499886512756348 C 8.500053405761719 28.499886512756348 8.500053405761719 28.499886512756348 8.500053405761719 28.499886512756348 C 8.500053405761719 28.499886512756348 6.499969482421875 28.499886512756348 6.499969482421875 28.499886512756348 C 6.499969482421875 28.499886512756348 6.499969482421875 26.49955463409424 6.499969482421875 26.49955463409424 C 6.499969482421875 26.49955463409424 6.499969482421875 26.49955463409424 6.499969482421875 26.49955463409424 C 6.499969482421875 26.49955463409424 6.499969482421875 20.999834060668945 6.499969482421875 20.999834060668945 Z M 21.999961853027344 5.499646186828613 C 21.999961853027344 5.499646186828613 22.000076293945312 5.499646186828613 22.000076293945312 5.499646186828613 C 22.000076293945312 5.499646186828613 27.49999237060547 5.499646186828613 27.49999237060547 5.499646186828613 C 27.49999237060547 5.499646186828613 27.49999237060547 5.499646186828613 27.49999237060547 5.499646186828613 C 27.49999237060547 5.499646186828613 29.499961853027344 5.499646186828613 29.499961853027344 5.499646186828613 C 29.499961853027344 5.499646186828613 29.499961853027344 7.499978065490723 29.499961853027344 7.499978065490723 C 29.499961853027344 7.499978065490723 29.499961853027344 7.499978065490723 29.499961853027344 7.499978065490723 C 29.499961853027344 7.499978065490723 29.499961853027344 12.999698638916016 29.499961853027344 12.999698638916016 C 29.499961853027344 12.999698638916016 29.499961853027344 12.999698638916016 29.499961853027344 12.999698638916016 C 29.499961853027344 13.828203201293945 28.82830810546875 14.499947547912598 27.999984741210938 14.499947547912598 C 27.171546936035156 14.499947547912598 26.499893188476562 13.828203201293945 26.499893188476562 12.999698638916016 C 26.499893188476562 12.999698638916016 26.499893188476562 12.999698638916016 26.499893188476562 12.999698638916016 C 26.499893188476562 12.999698638916016 26.499893188476562 8.499547958374023 26.499893188476562 8.499547958374023 C 26.499893188476562 8.499547958374023 21.999961853027344 8.499547958374023 21.999961853027344 8.499547958374023 C 21.999961853027344 8.499547958374023 21.999961853027344 8.499547958374023 21.999961853027344 8.499547958374023 C 21.171524047851562 8.499547958374023 20.499984741210938 7.828399658203125 20.499984741210938 6.999895095825195 C 20.499984741210938 6.171390533447266 21.171524047851562 5.499646186828613 21.999961853027344 5.499646186828613 Z M 21.999961853027344 25.499984741210938 C 21.999961853027344 25.499984741210938 21.999961853027344 25.499388694763184 21.999961853027344 25.499388694763184 C 21.999961853027344 25.499388694763184 26.499893188476562 25.499388694763184 26.499893188476562 25.499388694763184 C 26.499893188476562 25.499388694763184 26.499893188476562 20.999834060668945 26.499893188476562 20.999834060668945 C 26.499893188476562 20.999834060668945 26.499893188476562 20.999834060668945 26.499893188476562 20.999834060668945 C 26.499893188476562 20.171329498291016 27.171546936035156 19.499585151672363 27.999984741210938 19.499585151672363 C 28.82830810546875 19.499585151672363 29.499961853027344 20.171329498291016 29.499961853027344 20.999834060668945 C 29.499961853027344 20.999834060668945 29.499961853027344 20.999834060668945 29.499961853027344 20.999834060668945 C 29.499961853027344 20.999834060668945 29.499961853027344 26.49955463409424 29.499961853027344 26.49955463409424 C 29.499961853027344 26.49955463409424 29.499961853027344 26.49955463409424 29.499961853027344 26.49955463409424 C 29.499961853027344 26.49955463409424 29.499961853027344 28.499886512756348 29.499961853027344 28.499886512756348 C 29.499961853027344 28.499886512756348 27.49999237060547 28.499886512756348 27.49999237060547 28.499886512756348 C 27.49999237060547 28.499886512756348 27.49999237060547 28.499886512756348 27.49999237060547 28.499886512756348 C 27.49999237060547 28.499886512756348 22.000076293945312 28.499886512756348 22.000076293945312 28.499886512756348 C 22.000076293945312 28.499886512756348 21.999961853027344 28.499886512756348 21.999961853027344 28.499886512756348 C 21.171524047851562 28.499886512756348 20.499984741210938 27.828142166137695 20.499984741210938 26.999637603759766 C 20.499984741210938 26.171133041381836 21.171524047851562 25.499984741210938 21.999961853027344 25.499984741210938 Z"/></g></svg>