<svg version="1.1" xmlns="http://www.w3.org/2000/svg" xmlns:xlink="http://www.w3.org/1999/xlink" width="35" height="35"><defs/><g><path fill="rgb(149,225,211)" stroke="none" paint-order="stroke fill markers" fill-rule="evenodd" d=" M 31.49993896484375 33.99984169006348 C 31.49993896484375 33.99984169006348 2.4999237060546875 33.99984169006348 2.4999237060546875 33.99984169006348 C 1.671600341796875 33.99984169006348 1.00006103515625 33.328097343444824 1.00006103515625 32.499592781066895 C 1.00006103515625 32.499592781066895 1.00006103515625 3.49954891204834 1.00006103515625 3.49954891204834 C 1.00006103515625 2.671640396118164 1.671600341796875 1.9998960494995117 2.4999237060546875 1.9998960494995117 C 2.4999237060546875 1.9998960494995117 31.49993896484375 1.9998960494995117 31.49993896484375 1.9998960494995117 C 32.32837677001953 1.9998960494995117 33.000030517578125 2.671640396118164 33.000030517578125 3.49954891204834 C 33.000030517578125 3.49954891204834 33.000030517578125 32.499592781066895 33.000030517578125 32.499592781066895 C 33.000030517578125 33.328097343444824 32.32837677001953 33.99984169006348 31.49993896484375 33.99984169006348 Z M 29.999961853027344 4.999797821044922 C 29.999961853027344 4.999797821044922 4.0000152587890625 4.999797821044922 4.0000152587890625 4.999797821044922 C 4.0000152587890625 4.999797821044922 4.0000152587890625 30.999939918518066 4.0000152587890625 30.999939918518066 C 4.0000152587890625 30.999939918518066 29.999961853027344 30.999939918518066 29.999961853027344 30.999939918518066 C 29.999961853027344 30.999939918518066 29.999961853027344 4.999797821044922 29.999961853027344 4.999797821044922 Z M 6.215362548828125 18.238585472106934 C 6.215362548828125 18.238585472106934 6.2146759033203125 18.237393379211426 6.2146759033203125 18.237393379211426 C 6.2146759033203125 18.237393379211426 10.214614868164062 15.737574577331543 10.214614868164062 15.737574577331543 C 10.214614868164062 15.737574577331543 10.215415954589844 15.73876667022705 10.215415954589844 15.73876667022705 C 10.4437255859375 15.598099708557129 10.712318420410156 15.517037391662598 10.999908447265625 15.517037391662598 C 11.311302185058594 15.517037391662598 11.600379943847656 15.611808776855469 11.840133666992188 15.774529457092285 C 11.840133666992188 15.774529457092285 11.845970153808594 15.765588760375977 11.845970153808594 15.765588760375977 C 11.845970153808594 15.765588760375977 18.47667694091797 20.185869216918945 18.47667694091797 20.185869216918945 C 18.47667694091797 20.185869216918945 26.11492156982422 14.794629096984863 26.11492156982422 14.794629096984863 C 26.36302947998047 14.612834930419922 26.668930053710938 14.505546569824219 27.00000762939453 14.505546569824219 C 27.828330993652344 14.505546569824219 28.499984741210938 15.176694869995117 28.499984741210938 16.005199432373047 C 28.499984741210938 16.505282402038574 28.254966735839844 16.948144912719727 27.878456115722656 17.22053813934326 C 27.878456115722656 17.22053813934326 27.87891387939453 17.221134185791016 27.87891387939453 17.221134185791016 C 27.87891387939453 17.221134185791016 19.378929138183594 23.22153377532959 19.378929138183594 23.22153377532959 C 19.378929138183594 23.22153377532959 19.37847137451172 23.220937728881836 19.37847137451172 23.220937728881836 C 19.131507873535156 23.399751663208008 18.828125 23.50525188446045 18.500022888183594 23.50525188446045 C 18.179359436035156 23.50525188446045 17.88238525390625 23.40452003479004 17.638626098632812 23.232858657836914 C 17.638626098632812 23.232858657836914 10.982398986816406 18.795292854309082 10.982398986816406 18.795292854309082 C 10.982398986816406 18.795292854309082 7.846832275390625 20.755093574523926 7.846832275390625 20.755093574523926 C 7.6058197021484375 20.920198440551758 7.3142242431640625 21.017354011535645 6.999969482421875 21.017354011535645 C 6.171531677246094 21.017354011535645 5.499992370605469 20.345609664916992 5.499992370605469 19.517105102539062 C 5.499992370605469 18.97649097442627 5.786323547363281 18.502634048461914 6.215362548828125 18.238585472106934 Z"/></g></svg>