<svg version="1.1" xmlns="http://www.w3.org/2000/svg" xmlns:xlink="http://www.w3.org/1999/xlink" width="32" height="35"><defs/><g><path fill="rgb(149,225,211)" stroke="none" paint-order="stroke fill markers" fill-rule="evenodd" d=" M 28.499923706054688 18.49726963043213 C 28.499923706054688 18.49726963043213 25.499969482421875 18.49726963043213 25.499969482421875 18.49726963043213 C 24.671646118164062 18.49726963043213 23.99999237060547 17.826717376708984 23.99999237060547 16.9976167678833 C 23.99999237060547 16.9976167678833 23.99999237060547 10.99781322479248 23.99999237060547 10.99781322479248 C 23.99999237060547 10.169904708862305 24.671646118164062 9.498756408691406 25.499969482421875 9.498756408691406 C 25.499969482421875 9.498756408691406 28.499923706054688 9.498756408691406 28.499923706054688 9.498756408691406 C 29.32836151123047 9.498756408691406 30.000015258789062 10.169904708862305 30.000015258789062 10.99781322479248 C 30.000015258789062 10.99781322479248 30.000015258789062 16.9976167678833 30.000015258789062 16.9976167678833 C 30.000015258789062 17.826717376708984 29.32836151123047 18.49726963043213 28.499923706054688 18.49726963043213 Z M 25.499969482421875 3.497164726257324 C 25.499969482421875 2.6692562103271484 26.1715087890625 1.99810791015625 26.99994659423828 1.99810791015625 C 27.828384399414062 1.99810791015625 28.499923706054688 2.6692562103271484 28.499923706054688 3.497164726257324 C 28.499923706054688 3.497164726257324 28.499923706054688 7.99791145324707 28.499923706054688 7.99791145324707 C 28.499923706054688 7.99791145324707 25.499969482421875 7.99791145324707 25.499969482421875 7.99791145324707 C 25.499969482421875 7.99791145324707 25.499969482421875 3.497164726257324 25.499969482421875 3.497164726257324 Z M 17.499977111816406 26.49740505218506 C 17.499977111816406 26.49740505218506 14.499908447265625 26.49740505218506 14.499908447265625 26.49740505218506 C 13.671585083007812 26.49740505218506 12.999931335449219 25.826852798461914 12.999931335449219 24.998348236083984 C 12.999931335449219 24.998348236083984 12.999931335449219 18.99794864654541 12.999931335449219 18.99794864654541 C 12.999931335449219 18.170040130615234 13.671585083007812 17.497699737548828 14.499908447265625 17.497699737548828 C 14.499908447265625 17.497699737548828 17.499977111816406 17.497699737548828 17.499977111816406 17.497699737548828 C 18.328414916992188 17.497699737548828 18.999954223632812 18.170040130615234 18.999954223632812 18.99794864654541 C 18.999954223632812 18.99794864654541 18.999954223632812 24.998348236083984 18.999954223632812 24.998348236083984 C 18.999954223632812 25.826852798461914 18.328414916992188 26.49740505218506 17.499977111816406 26.49740505218506 Z M 14.499908447265625 3.497164726257324 C 14.499908447265625 2.6692562103271484 15.171562194824219 1.99810791015625 16 1.99810791015625 C 16.82843780517578 1.99810791015625 17.499977111816406 2.6692562103271484 17.499977111816406 3.497164726257324 C 17.499977111816406 3.497164726257324 17.499977111816406 15.998046875 17.499977111816406 15.998046875 C 17.499977111816406 15.998046875 14.499908447265625 15.998046875 14.499908447265625 15.998046875 C 14.499908447265625 15.998046875 14.499908447265625 3.497164726257324 14.499908447265625 3.497164726257324 Z M 6.500030517578125 22.497933387756348 C 6.500030517578125 22.497933387756348 3.4999618530273438 22.497933387756348 3.4999618530273438 22.497933387756348 C 2.6715240478515625 22.497933387756348 1.9999847412109375 21.826189041137695 1.9999847412109375 20.99708843231201 C 1.9999847412109375 20.99708843231201 1.9999847412109375 14.997284889221191 1.9999847412109375 14.997284889221191 C 1.9999847412109375 14.169376373291016 2.6715240478515625 13.498228073120117 3.4999618530273438 13.498228073120117 C 3.4999618530273438 13.498228073120117 6.500030517578125 13.498228073120117 6.500030517578125 13.498228073120117 C 7.3283538818359375 13.498228073120117 8.000007629394531 14.169376373291016 8.000007629394531 14.997284889221191 C 8.000007629394531 14.997284889221191 8.000007629394531 20.99708843231201 8.000007629394531 20.99708843231201 C 8.000007629394531 21.826189041137695 7.3283538818359375 22.497933387756348 6.500030517578125 22.497933387756348 Z M 3.4999618530273438 3.497164726257324 C 3.4999618530273438 2.6692562103271484 4.171501159667969 1.99810791015625 4.99993896484375 1.99810791015625 C 5.828376770019531 1.99810791015625 6.500030517578125 2.6692562103271484 6.500030517578125 3.497164726257324 C 6.500030517578125 3.497164726257324 6.500030517578125 11.998575210571289 6.500030517578125 11.998575210571289 C 6.500030517578125 11.998575210571289 3.4999618530273438 11.998575210571289 3.4999618530273438 11.998575210571289 C 3.4999618530273438 11.998575210571289 3.4999618530273438 3.497164726257324 3.4999618530273438 3.497164726257324 Z M 6.500030517578125 32.49720859527588 C 6.500030517578125 33.32630920410156 5.828376770019531 33.998053550720215 4.99993896484375 33.998053550720215 C 4.171501159667969 33.998053550720215 3.4999618530273438 33.32630920410156 3.4999618530273438 32.49720859527588 C 3.4999618530273438 32.49720859527588 3.4999618530273438 23.99818229675293 3.4999618530273438 23.99818229675293 C 3.4999618530273438 23.99818229675293 6.500030517578125 23.99818229675293 6.500030517578125 23.99818229675293 C 6.500030517578125 23.99818229675293 6.500030517578125 32.49720859527588 6.500030517578125 32.49720859527588 Z M 17.499977111816406 32.49720859527588 C 17.499977111816406 33.32630920410156 16.82843780517578 33.998053550720215 16 33.998053550720215 C 15.171562194824219 33.998053550720215 14.499908447265625 33.32630920410156 14.499908447265625 32.49720859527588 C 14.499908447265625 32.49720859527588 14.499908447265625 27.997057914733887 14.499908447265625 27.997057914733887 C 14.499908447265625 27.997057914733887 17.499977111816406 27.997057914733887 17.499977111816406 27.997057914733887 C 17.499977111816406 27.997057914733887 17.499977111816406 32.49720859527588 17.499977111816406 32.49720859527588 Z M 28.499923706054688 32.49720859527588 C 28.499923706054688 33.32630920410156 27.828384399414062 33.998053550720215 26.99994659423828 33.998053550720215 C 26.1715087890625 33.998053550720215 25.499969482421875 33.32630920410156 25.499969482421875 32.49720859527588 C 25.499969482421875 32.49720859527588 25.499969482421875 19.99871063232422 25.499969482421875 19.99871063232422 C 25.499969482421875 19.99871063232422 28.499923706054688 19.99871063232422 28.499923706054688 19.99871063232422 C 28.499923706054688 19.99871063232422 28.499923706054688 32.49720859527588 28.499923706054688 32.49720859527588 Z"/></g></svg>