<svg version="1.1" xmlns="http://www.w3.org/2000/svg" xmlns:xlink="http://www.w3.org/1999/xlink" width="35" height="35"><defs/><g><path fill="rgb(149,225,211)" stroke="none" paint-order="stroke fill markers" fill-rule="evenodd" d=" M 16.999984741210938 33.99834442138672 C 8.163543701171875 33.99834442138672 1 26.835058212280273 1 17.997477531433105 C 1 9.162281036376953 8.163543701171875 1.997802734375 16.999984741210938 1.997802734375 C 25.83654022216797 1.997802734375 33.000083923339844 9.162281036376953 33.000083923339844 17.997477531433105 C 33.000083923339844 26.835058212280273 25.83654022216797 33.99834442138672 16.999984741210938 33.99834442138672 Z M 16.999984741210938 4.998300552368164 C 9.820304870605469 4.998300552368164 4.000068664550781 10.81750202178955 4.000068664550781 17.997477531433105 C 4.000068664550781 25.17745304107666 9.820304870605469 30.997846603393555 16.999984741210938 30.997846603393555 C 24.179664611816406 30.997846603393555 30.000015258789062 25.17745304107666 30.000015258789062 17.997477531433105 C 30.000015258789062 10.81750202178955 24.179664611816406 4.998300552368164 16.999984741210938 4.998300552368164 Z M 16.999984741210938 27.497265815734863 C 11.753211975097656 27.497265815734863 7.5000152587890625 23.244474411010742 7.5000152587890625 17.997477531433105 C 7.5000152587890625 12.751672744750977 11.753211975097656 8.497689247131348 16.999984741210938 8.497689247131348 C 22.24664306640625 8.497689247131348 26.499954223632812 12.751672744750977 26.499954223632812 17.997477531433105 C 26.499954223632812 23.244474411010742 22.24664306640625 27.497265815734863 16.999984741210938 27.497265815734863 Z M 16.999984741210938 11.497591018676758 C 13.410087585449219 11.497591018676758 10.499969482421875 14.408085823059082 10.499969482421875 17.997477531433105 C 10.499969482421875 21.58686923980713 13.410087585449219 24.49855613708496 16.999984741210938 24.49855613708496 C 20.589767456054688 24.49855613708496 23.5 21.58686923980713 23.5 17.997477531433105 C 23.5 14.408085823059082 20.589767456054688 11.497591018676758 16.999984741210938 11.497591018676758 Z M 16.999984741210938 20.998571395874023 C 15.343109130859375 20.998571395874023 14.000030517578125 19.65508270263672 14.000030517578125 17.997477531433105 C 14.000030517578125 16.341064453125 15.343109130859375 14.998767852783203 16.999984741210938 14.998767852783203 C 18.6568603515625 14.998767852783203 19.99993896484375 16.341064453125 19.99993896484375 17.997477531433105 C 19.99993896484375 19.65508270263672 18.6568603515625 20.998571395874023 16.999984741210938 20.998571395874023 Z"/></g></svg>