<svg version="1.1" xmlns="http://www.w3.org/2000/svg" xmlns:xlink="http://www.w3.org/1999/xlink" width="33" height="33"><defs/><g><path fill="rgb(149,225,211)" stroke="none" paint-order="stroke fill markers" fill-rule="evenodd" d=" M 31.999984741210938 25.998918533325195 C 31.999984741210938 26.64980125427246 31.58124542236328 27.199356079101562 31 27.406184196472168 C 31 27.406184196472168 31 29.0894193649292 31 29.0894193649292 C 31.58124542236328 29.296247482299805 31.999984741210938 29.845802307128906 31.999984741210938 30.49787712097168 C 31.999984741210938 31.325785636901855 31.328330993652344 31.998722076416016 30.50000762939453 31.998722076416016 C 29.847808837890625 31.998722076416016 29.298492431640625 31.57850933074951 29.091812133789062 30.997960090637207 C 29.091812133789062 30.997960090637207 27.408157348632812 30.997960090637207 27.408157348632812 30.997960090637207 C 27.20147705078125 31.57850933074951 26.65216064453125 31.998722076416016 25.999961853027344 31.998722076416016 C 25.347763061523438 31.998722076416016 24.798446655273438 31.57850933074951 24.591880798339844 30.997960090637207 C 24.591880798339844 30.997960090637207 22.908111572265625 30.997960090637207 22.908111572265625 30.997960090637207 C 22.701431274414062 31.57850933074951 22.152114868164062 31.998722076416016 21.500030517578125 31.998722076416016 C 20.84783172607422 31.998722076416016 20.29851531982422 31.57850933074951 20.091835021972656 30.997960090637207 C 20.091835021972656 30.997960090637207 18.408180236816406 30.997960090637207 18.408180236816406 30.997960090637207 C 18.201499938964844 31.57850933074951 17.652183532714844 31.998722076416016 16.999984741210938 31.998722076416016 C 16.34778594970703 31.998722076416016 15.798355102539062 31.57850933074951 15.591789245605469 30.997960090637207 C 15.591789245605469 30.997960090637207 13.908134460449219 30.997960090637207 13.908134460449219 30.997960090637207 C 13.701568603515625 31.57850933074951 13.152137756347656 31.998722076416016 12.49993896484375 31.998722076416016 C 11.847854614257812 31.998722076416016 11.298423767089844 31.57850933074951 11.09185791015625 30.997960090637207 C 11.09185791015625 30.997960090637207 9.408088684082031 30.997960090637207 9.408088684082031 30.997960090637207 C 9.201522827148438 31.57850933074951 8.652091979980469 31.998722076416016 7.9998931884765625 31.998722076416016 C 7.347808837890625 31.998722076416016 6.798492431640625 31.57850933074951 6.5918121337890625 30.997960090637207 C 6.5918121337890625 30.997960090637207 4.9081573486328125 30.997960090637207 4.9081573486328125 30.997960090637207 C 4.70147705078125 31.57850933074951 4.15216064453125 31.998722076416016 3.4999618530273438 31.998722076416016 C 2.6716384887695312 31.998722076416016 1.9999847412109375 31.325785636901855 1.9999847412109375 30.49787712097168 C 1.9999847412109375 29.845802307128906 2.4187240600585938 29.296247482299805 2.999969482421875 29.0894193649292 C 2.999969482421875 29.0894193649292 2.999969482421875 27.406184196472168 2.999969482421875 27.406184196472168 C 2.4187240600585938 27.199356079101562 1.9999847412109375 26.64980125427246 1.9999847412109375 25.998918533325195 C 1.9999847412109375 25.34505558013916 2.4187240600585938 24.796692848205566 2.999969482421875 24.58986473083496 C 2.999969482421875 24.58986473083496 2.999969482421875 22.90662956237793 2.999969482421875 22.90662956237793 C 2.4187240600585938 22.698609352111816 1.9999847412109375 22.150246620178223 1.9999847412109375 21.49817180633545 C 1.9999847412109375 20.84669303894043 2.4187240600585938 20.296542167663574 2.999969482421875 20.08971405029297 C 2.999969482421875 20.08971405029297 2.999969482421875 18.405882835388184 2.999969482421875 18.405882835388184 C 2.4187240600585938 18.200246810913086 1.9999847412109375 17.650691986083984 1.9999847412109375 16.99861717224121 C 1.9999847412109375 16.346542358398438 2.4187240600585938 15.796987533569336 2.999969482421875 15.588967323303223 C 2.999969482421875 15.588967323303223 2.999969482421875 13.905732154846191 2.999969482421875 13.905732154846191 C 2.4187240600585938 13.700096130371094 1.9999847412109375 13.150541305541992 1.9999847412109375 12.498466491699219 C 1.9999847412109375 11.845795631408691 2.4187240600585938 11.29624080657959 2.999969482421875 11.090604782104492 C 2.999969482421875 11.090604782104492 2.999969482421875 9.406177520751953 2.999969482421875 9.406177520751953 C 2.4187240600585938 9.199349403381348 1.9999847412109375 8.649794578552246 1.9999847412109375 7.997719764709473 C 1.9999847412109375 7.346240997314453 2.4187240600585938 6.796090126037598 2.999969482421875 6.5904541015625 C 2.999969482421875 6.5904541015625 2.999969482421875 4.905430793762207 2.999969482421875 4.905430793762207 C 2.4187240600585938 4.699794769287109 1.9999847412109375 4.150239944458008 1.9999847412109375 3.4981651306152344 C 1.9999847412109375 2.669064521789551 2.6716384887695312 1.9985122680664062 3.4999618530273438 1.9985122680664062 C 4.15216064453125 1.9985122680664062 4.70147705078125 2.4163408279418945 4.9081573486328125 2.998678207397461 C 4.9081573486328125 2.998678207397461 6.5918121337890625 2.998678207397461 6.5918121337890625 2.998678207397461 C 6.798492431640625 2.4163408279418945 7.347808837890625 1.9985122680664062 7.9998931884765625 1.9985122680664062 C 8.652091979980469 1.9985122680664062 9.201522827148438 2.4163408279418945 9.408088684082031 2.998678207397461 C 9.408088684082031 2.998678207397461 11.09185791015625 2.998678207397461 11.09185791015625 2.998678207397461 C 11.298423767089844 2.4163408279418945 11.847854614257812 1.9985122680664062 12.49993896484375 1.9985122680664062 C 13.152137756347656 1.9985122680664062 13.701568603515625 2.4163408279418945 13.908134460449219 2.998678207397461 C 13.908134460449219 2.998678207397461 15.591789245605469 2.998678207397461 15.591789245605469 2.998678207397461 C 15.798355102539062 2.4163408279418945 16.34778594970703 1.9985122680664062 16.999984741210938 1.9985122680664062 C 17.652183532714844 1.9985122680664062 18.201499938964844 2.4163408279418945 18.408180236816406 2.998678207397461 C 18.408180236816406 2.998678207397461 20.091835021972656 2.998678207397461 20.091835021972656 2.998678207397461 C 20.29851531982422 2.4163408279418945 20.84783172607422 1.9985122680664062 21.500030517578125 1.9985122680664062 C 22.152114868164062 1.9985122680664062 22.701431274414062 2.4163408279418945 22.908111572265625 2.998678207397461 C 22.908111572265625 2.998678207397461 24.591880798339844 2.998678207397461 24.591880798339844 2.998678207397461 C 24.798446655273438 2.4163408279418945 25.347763061523438 1.9985122680664062 25.999961853027344 1.9985122680664062 C 26.65216064453125 1.9985122680664062 27.20147705078125 2.4163408279418945 27.408157348632812 2.998678207397461 C 27.408157348632812 2.998678207397461 29.091812133789062 2.998678207397461 29.091812133789062 2.998678207397461 C 29.298492431640625 2.4163408279418945 29.847808837890625 1.9985122680664062 30.50000762939453 1.9985122680664062 C 31.328330993652344 1.9985122680664062 31.999984741210938 2.669064521789551 31.999984741210938 3.4981651306152344 C 31.999984741210938 4.150239944458008 31.58124542236328 4.699794769287109 31 4.905430793762207 C 31 4.905430793762207 31 6.5904541015625 31 6.5904541015625 C 31.58124542236328 6.796090126037598 31.999984741210938 7.346240997314453 31.999984741210938 7.997719764709473 C 31.999984741210938 8.649794578552246 31.58124542236328 9.199349403381348 31 9.406177520751953 C 31 9.406177520751953 31 11.090604782104492 31 11.090604782104492 C 31.58124542236328 11.29624080657959 31.999984741210938 11.845795631408691 31.999984741210938 12.498466491699219 C 31.999984741210938 13.150541305541992 31.58124542236328 13.700096130371094 31 13.905732154846191 C 31 13.905732154846191 31 15.588967323303223 31 15.588967323303223 C 31.58124542236328 15.796987533569336 31.999984741210938 16.346542358398438 31.999984741210938 16.99861717224121 C 31.999984741210938 17.650691986083984 31.58124542236328 18.200246810913086 31 18.405882835388184 C 31 18.405882835388184 31 20.08971405029297 31 20.08971405029297 C 31.58124542236328 20.296542167663574 31.999984741210938 20.84669303894043 31.999984741210938 21.49817180633545 C 31.999984741210938 22.150246620178223 31.58124542236328 22.698609352111816 31 22.90662956237793 C 31 22.90662956237793 31 24.58986473083496 31 24.58986473083496 C 31.58124542236328 24.796692848205566 31.999984741210938 25.34505558013916 31.999984741210938 25.998918533325195 Z M 28.000045776367188 5.997387886047363 C 28.000045776367188 5.997387886047363 6.000038146972656 5.997387886047363 6.000038146972656 5.997387886047363 C 6.000038146972656 5.997387886047363 6.000038146972656 27.998058319091797 6.000038146972656 27.998058319091797 C 6.000038146972656 27.998058319091797 28.000045776367188 27.998058319091797 28.000045776367188 27.998058319091797 C 28.000045776367188 27.998058319091797 28.000045776367188 5.997387886047363 28.000045776367188 5.997387886047363 Z M 15.000015258789062 21.997658729553223 C 15.000015258789062 21.997658729553223 21.999908447265625 13.498632431030273 21.999908447265625 13.498632431030273 C 21.999908447265625 13.498632431030273 26.499954223632812 20.49860191345215 26.499954223632812 20.49860191345215 C 26.499954223632812 20.49860191345215 26.499954223632812 26.49840545654297 26.499954223632812 26.49840545654297 C 26.499954223632812 26.49840545654297 7.499900817871094 26.49840545654297 7.499900817871094 26.49840545654297 C 7.499900817871094 26.49840545654297 13.500038146972656 20.49860191345215 13.500038146972656 20.49860191345215 C 13.500038146972656 20.49860191345215 15.000015258789062 21.997658729553223 15.000015258789062 21.997658729553223 Z M 11.999946594238281 14.998285293579102 C 10.343070983886719 14.998285293579102 8.999992370605469 13.654796600341797 8.999992370605469 11.997191429138184 C 8.999992370605469 10.340182304382324 10.343070983886719 8.998481750488281 11.999946594238281 8.998481750488281 C 13.656822204589844 8.998481750488281 15.000015258789062 10.340182304382324 15.000015258789062 11.997191429138184 C 15.000015258789062 13.654796600341797 13.656822204589844 14.998285293579102 11.999946594238281 14.998285293579102 Z"/></g></svg>