<svg version="1.1" xmlns="http://www.w3.org/2000/svg" xmlns:xlink="http://www.w3.org/1999/xlink" width="66" height="64"><defs/><g><path fill="rgb(149,225,211)" stroke="none" paint-order="stroke fill markers" fill-rule="evenodd" d=" M 61.00005340576172 37.99795341491699 C 61.00005340576172 37.99795341491699 60.10009002685547 37.99795341491699 60.10009002685547 37.99795341491699 C 60.10009002685547 37.99795341491699 60.10009002685547 37.99795341491699 60.10009002685547 37.99795341491699 C 60.10009002685547 37.99795341491699 58.999969482421875 37.99795341491699 58.999969482421875 37.99795341491699 C 58.999969482421875 37.99795341491699 58.999969482421875 42.998783111572266 58.999969482421875 42.998783111572266 C 58.999969482421875 42.998783111572266 58.999969482421875 42.998783111572266 58.999969482421875 42.998783111572266 C 58.999969482421875 43.20441913604736 58.979026794433594 43.407670974731445 58.9390869140625 43.60257816314697 C 58.911163330078125 43.73907279968262 58.86286926269531 43.8660306930542 58.81709289550781 43.9953727722168 C 58.79729461669922 44.05259323120117 58.787109375 44.11219787597656 58.76422119140625 44.16524600982666 C 58.7156982421875 44.280282974243164 58.649208068847656 44.38518714904785 58.5875244140625 44.4918794631958 C 58.55250549316406 44.552080154418945 58.526527404785156 44.617645263671875 58.48761749267578 44.67605781555176 C 58.38954162597656 44.81970500946045 58.275787353515625 44.95381546020508 58.15447998046875 45.0789852142334 C 58.14246368408203 45.092098236083984 58.13365173339844 45.107595443725586 58.12129211425781 45.11892032623291 C 57.58673858642578 45.65476608276367 56.850425720214844 45.984975814819336 56.037208557128906 45.9945125579834 C 56.024505615234375 45.9945125579834 56.012718200683594 45.99749279022217 56.00001525878906 45.99749279022217 C 56.00001525878906 45.99749279022217 56.00001525878906 45.99749279022217 56.00001525878906 45.99749279022217 C 56.00001525878906 45.99749279022217 56.00001525878906 45.99749279022217 56.00001525878906 45.99749279022217 C 55.17157745361328 45.99749279022217 54.421531677246094 45.66311073303223 53.878623962402344 45.11892032623291 C 53.878623962402344 45.11892032623291 46.757423400878906 37.99795341491699 46.757423400878906 37.99795341491699 C 46.757423400878906 37.99795341491699 46.40013885498047 37.99795341491699 46.40013885498047 37.99795341491699 C 46.40013885498047 37.99795341491699 46.40013885498047 37.99795341491699 46.40013885498047 37.99795341491699 C 46.40013885498047 37.99795341491699 18.999893188476562 37.99795341491699 18.999893188476562 37.99795341491699 C 17.34313201904297 37.99795341491699 16.00005340576172 36.65506076812744 16.00005340576172 34.99805164337158 C 16.00005340576172 34.99805164337158 16.00005340576172 4.998437881469727 16.00005340576172 4.998437881469727 C 16.00005340576172 3.341428756713867 17.34313201904297 1.9973440170288086 18.999893188476562 1.9973440170288086 C 18.999893188476562 1.9973440170288086 61.00005340576172 1.9973440170288086 61.00005340576172 1.9973440170288086 C 62.65681457519531 1.9973440170288086 64.00000762939453 3.341428756713867 64.00000762939453 4.998437881469727 C 64.00000762939453 4.998437881469727 64.00000762939453 34.99805164337158 64.00000762939453 34.99805164337158 C 64.00000762939453 36.65506076812744 62.65681457519531 37.99795341491699 61.00005340576172 37.99795341491699 Z M 45.51470947265625 40.998451232910156 C 45.51470947265625 40.998451232910156 51.84123229980469 47.32488822937012 51.84123229980469 47.32488822937012 C 51.84123229980469 47.32488822937012 51.84935760498047 47.31654357910156 51.84935760498047 47.31654357910156 C 52.92761993408203 48.35366439819336 54.38616943359375 48.998586654663086 56.00001525878906 48.998586654663086 C 56.00001525878906 48.998586654663086 56.00001525878906 50.998918533325195 56.00001525878906 50.998918533325195 C 56.00001525878906 52.6553316116333 54.656822204589844 53.9976282119751 52.99994659423828 53.9976282119751 C 52.99994659423828 53.9976282119751 52.99994659423828 53.9976282119751 52.99994659423828 53.9976282119751 C 52.99994659423828 53.9976282119751 31.90001678466797 53.9976282119751 31.90001678466797 53.9976282119751 C 31.90001678466797 53.9976282119751 31.90001678466797 53.9976282119751 31.90001678466797 53.9976282119751 C 31.90001678466797 53.9976282119751 25.000030517578125 53.9976282119751 25.000030517578125 53.9976282119751 C 25.000030517578125 53.9976282119751 25.000030517578125 53.9976282119751 25.000030517578125 53.9976282119751 C 25.000030517578125 53.9976282119751 21.999961853027344 53.9976282119751 21.999961853027344 53.9976282119751 C 21.999961853027344 53.9976282119751 21.999961853027344 53.9976282119751 21.999961853027344 53.9976282119751 C 21.999961853027344 53.9976282119751 21.242591857910156 53.9976282119751 21.242591857910156 53.9976282119751 C 21.242591857910156 53.9976282119751 13.121292114257812 62.11995315551758 13.121292114257812 62.11995315551758 C 12.578498840332031 62.66235542297363 11.828338623046875 62.998525619506836 11.000015258789062 62.998525619506836 C 11.000015258789062 62.998525619506836 11.000015258789062 62.998525619506836 11.000015258789062 62.998525619506836 C 11.000015258789062 62.998525619506836 11.000015258789062 62.998525619506836 11.000015258789062 62.998525619506836 C 10.987197875976562 62.998525619506836 10.97552490234375 62.99494934082031 10.962821960449219 62.99494934082031 C 10.149490356445312 62.98422050476074 9.413291931152344 62.65401077270508 8.878738403320312 62.11995315551758 C 8.866378784179688 62.10684013366699 8.857566833496094 62.09134292602539 8.845550537109375 62.07882595062256 C 8.724128723144531 61.95425224304199 8.610488891601562 61.82014179229736 8.512413024902344 61.67470645904541 C 8.473388671875 61.61808204650879 8.447525024414062 61.55251693725586 8.412620544433594 61.49172019958496 C 8.3507080078125 61.38443183898926 8.284332275390625 61.280123710632324 8.235809326171875 61.16627883911133 C 8.212806701660156 61.11203861236572 8.202735900878906 61.05183792114258 8.182937622070312 60.99580955505371 C 8.137275695800781 60.86646747589111 8.0888671875 60.73950958251953 8.060943603515625 60.60241889953613 C 8.021003723144531 60.40810775756836 8.00006103515625 60.20545196533203 8.00006103515625 59.99743175506592 C 8.00006103515625 59.99743175506592 8.00006103515625 59.99743175506592 8.00006103515625 59.99743175506592 C 8.00006103515625 59.99743175506592 8.00006103515625 53.9976282119751 8.00006103515625 53.9976282119751 C 8.00006103515625 53.9976282119751 7.4999542236328125 53.9976282119751 7.4999542236328125 53.9976282119751 C 7.4999542236328125 53.9976282119751 7.4999542236328125 53.9976282119751 7.4999542236328125 53.9976282119751 C 7.4999542236328125 53.9976282119751 3.9958877563476562 53.9976282119751 3.9958877563476562 53.9976282119751 C 2.3409576416015625 53.99524402618408 1.0000534057617188 52.65413951873779 1.0000534057617188 50.998918533325195 C 1.0000534057617188 50.998918533325195 1.0000534057617188 16.999237060546875 1.0000534057617188 16.999237060546875 C 1.0000534057617188 16.998044967651367 1.0000534057617188 16.998044967651367 1.0000534057617188 16.998044967651367 C 1.0000534057617188 15.340439796447754 2.343017578125 13.998143196105957 4.000007629394531 13.998143196105957 C 4.000007629394531 13.998143196105957 13.000099182128906 13.998143196105957 13.000099182128906 13.998143196105957 C 13.000099182128906 13.998143196105957 13.000099182128906 34.99805164337158 13.000099182128906 34.99805164337158 C 13.000099182128906 38.31147384643555 15.686256408691406 40.998451232910156 18.999893188476562 40.998451232910156 C 18.999893188476562 40.998451232910156 45.51470947265625 40.998451232910156 45.51470947265625 40.998451232910156 Z"/></g></svg>